<mxfile host="app.diagrams.net" modified="2021-03-30T07:56:11.901Z" agent="5.0 (Windows NT 10.0; Win64; x64) AppleWebKit/537.36 (KHTML, like Gecko) Chrome/89.0.4389.90 Safari/537.36" etag="sbfvjim7rz8tTEBDWj55" version="14.5.3" type="github">
  <diagram id="8dgg9QJMpTgX3ZqzePfM" name="Page-1">
    <mxGraphModel dx="2246" dy="1150" grid="1" gridSize="10" guides="1" tooltips="1" connect="1" arrows="1" fold="1" page="1" pageScale="1" pageWidth="827" pageHeight="1169" math="0" shadow="0">
      <root>
        <mxCell id="0" />
        <mxCell id="1" parent="0" />
        <mxCell id="fIv3RN2L2qxRrrq1oFCo-20" value="" style="rounded=1;whiteSpace=wrap;html=1;absoluteArcSize=1;arcSize=14;strokeWidth=2;fillColor=#ffe6cc;strokeColor=#d79b00;" vertex="1" parent="1">
          <mxGeometry x="-220" y="170" width="100" height="100" as="geometry" />
        </mxCell>
        <mxCell id="fIv3RN2L2qxRrrq1oFCo-21" value="" style="rounded=1;whiteSpace=wrap;html=1;absoluteArcSize=1;arcSize=14;strokeWidth=2;fillColor=#ffe6cc;strokeColor=#d79b00;" vertex="1" parent="1">
          <mxGeometry x="-760" y="270" width="100" height="100" as="geometry" />
        </mxCell>
        <mxCell id="fIv3RN2L2qxRrrq1oFCo-22" value="" style="rounded=1;whiteSpace=wrap;html=1;absoluteArcSize=1;arcSize=14;strokeWidth=2;fillColor=#ffe6cc;strokeColor=#d79b00;" vertex="1" parent="1">
          <mxGeometry x="-870" y="380" width="100" height="100" as="geometry" />
        </mxCell>
        <mxCell id="fIv3RN2L2qxRrrq1oFCo-23" value="" style="rounded=1;whiteSpace=wrap;html=1;absoluteArcSize=1;arcSize=14;strokeWidth=2;fillColor=#e1d5e7;strokeColor=#9673a6;" vertex="1" parent="1">
          <mxGeometry x="-870" y="380" width="100" height="100" as="geometry" />
        </mxCell>
        <mxCell id="fIv3RN2L2qxRrrq1oFCo-25" value="&lt;font style=&quot;font-size: 17px&quot;&gt;Task&lt;/font&gt;" style="rounded=1;whiteSpace=wrap;html=1;absoluteArcSize=1;arcSize=14;strokeWidth=2;fillColor=#ffe6cc;strokeColor=#d79b00;" vertex="1" parent="1">
          <mxGeometry x="-1310" y="310" width="100" height="100" as="geometry" />
        </mxCell>
        <mxCell id="fIv3RN2L2qxRrrq1oFCo-27" style="edgeStyle=orthogonalEdgeStyle;rounded=0;orthogonalLoop=1;jettySize=auto;html=1;exitX=1;exitY=0.5;exitDx=0;exitDy=0;exitPerimeter=0;entryX=0;entryY=0.5;entryDx=0;entryDy=0;" edge="1" parent="1" source="fIv3RN2L2qxRrrq1oFCo-26" target="fIv3RN2L2qxRrrq1oFCo-25">
          <mxGeometry relative="1" as="geometry" />
        </mxCell>
        <mxCell id="fIv3RN2L2qxRrrq1oFCo-26" value="&lt;font style=&quot;font-size: 21px&quot;&gt;A&lt;/font&gt;" style="strokeWidth=2;html=1;shape=mxgraph.flowchart.start_2;whiteSpace=wrap;" vertex="1" parent="1">
          <mxGeometry x="-1480" y="310" width="100" height="100" as="geometry" />
        </mxCell>
      </root>
    </mxGraphModel>
  </diagram>
</mxfile>
